<svg width="16" height="16" viewBox="0 0 16 16" fill="none" xmlns="http://www.w3.org/2000/svg">
<path d="M8.47463 11.8998L11.8994 8.25413C11.9311 8.22109 11.9563 8.18169 11.9735 8.13822C11.9908 8.09474 11.9998 8.04805 12 8.00086C12.0002 7.95391 11.9918 7.90737 11.9751 7.86391C11.9584 7.82045 11.9338 7.78092 11.9027 7.74759L8.47463 4.10552C8.44345 4.07208 8.40635 4.04554 8.36547 4.02743C8.3246 4.00932 8.28076 4 8.23648 4C8.19219 4 8.14835 4.00932 8.10748 4.02743C8.0666 4.04554 8.0295 4.07208 7.99832 4.10552L7.07589 5.08649C7.01543 5.153 6.98164 5.24189 6.98164 5.3344C6.98164 5.42691 7.01543 5.51581 7.07589 5.58232L8.1023 6.73808C8.1106 6.7526 8.11498 6.76926 8.11498 6.78624C8.11498 6.80322 8.1106 6.81988 8.1023 6.8344C8.09576 6.85035 8.08496 6.86391 8.07125 6.87342C8.05755 6.88293 8.04152 6.88796 8.02515 6.8879L4.33543 6.8879C4.24647 6.8879 4.16115 6.92549 4.09825 6.99238C4.03534 7.05928 4 7.15001 4 7.24462L4 8.67148C4 8.76609 4.03534 8.85682 4.09825 8.92372C4.16115 8.99062 4.24647 9.0282 4.33543 9.0282L8.02515 9.0282C8.04152 9.02814 8.05755 9.03317 8.07125 9.04268C8.08496 9.05219 8.09576 9.06576 8.1023 9.08171C8.11025 9.09635 8.11444 9.11296 8.11444 9.12986C8.11444 9.14677 8.11025 9.16338 8.1023 9.17802L7.0457 10.423C6.98721 10.4891 6.95465 10.5765 6.95465 10.6673C6.95465 10.7581 6.98721 10.8455 7.0457 10.9117L8.00838 11.8998C8.07093 11.9641 8.15452 12 8.24151 12C8.3285 12 8.41208 11.9641 8.47463 11.8998Z" fill="white"/>
</svg>
